<?xml version="1.0" encoding="UTF-8"?>
<svg id="Layer_1" xmlns="http://www.w3.org/2000/svg" baseProfile="tiny" version="1.2" viewBox="0 0 153.3 121.3">
  <!-- Generator: Adobe Illustrator 29.1.0, SVG Export Plug-In . SVG Version: 2.1.0 Build 142)  -->
  <path d="M0,55.5V.7C0,.2.2,0,.7,0h5.6c.5,0,.7.2.7.7v22.8L20.2.7c.3-.5.7-.7,1.1-.7h6.3c.5,0,.6.2.3.7l-15.8,27.4,15.8,27.4c.3.5.2.7-.3.7h-6.3c-.5,0-.8-.2-1.1-.7l-13.2-22.8v22.8c0,.5-.2.7-.7.7H.7c-.5,0-.7-.2-.7-.7" fill="#50b6c9"/>
  <path d="M58.6,114.2c.5.2.7.5.7.7v5.6c0,.5-.2.7-.7.7h-26.7c-.5,0-.7-.2-.7-.7v-5.6c0-.5.2-.7.7-.7h9.9V31.5c0-1.8-.6-3.3-1.9-4.7-1.2-1.3-2.7-2.1-4.5-2.3h-3.5c-.5,0-.7-.3-.7-.8v-5.6c0-.5.2-.7.7-.7h3.5c3.7.1,6.9,1.6,9.5,4.3s3.9,6,3.9,9.7v82.7h9.8-9.8,9.8ZM32.8,9.1c1,1,2.3,1.5,3.7,1.5s2.7-.5,3.7-1.5c1-1,1.5-2.3,1.5-3.7s-.5-2.8-1.5-3.8c-1-1-2.3-1.5-3.7-1.5s-2.7.5-3.7,1.5c-1,1-1.5,2.3-1.5,3.8s.5,2.7,1.5,3.7" fill="#50b6c9"/>
  <path d="M62.7,55.5V.7c0-.5.2-.7.7-.7h5.6c.5,0,.7.2.7.7v22.8L82.9.7c.3-.5.7-.7,1.1-.7h6.3c.5,0,.6.2.3.7l-15.8,27.4,15.8,27.4c.3.5.2.7-.3.7h-6.3c-.5,0-.8-.2-1.1-.7l-13.2-22.8v22.8c0,.5-.2.7-.7.7h-5.6c-.5,0-.7-.2-.7-.7" fill="#50b6c9"/>
  <path d="M92.3,11c0-.5.2-.7.7-.7h5.6c.5,0,.7.2.7.7v31.7c.2,2,1,3.5,2.4,4.7,1.4,1.2,2.9,1.8,4.7,1.8s3.4-.6,4.7-1.8c1.3-1.2,2.1-2.7,2.3-4.5v-24.6c0-.5.2-.7.7-.7h5.6c.5,0,.7.2.7.7v37.3c0,.5-.2.7-.7.7h-5.6c-.5,0-.7-.2-.7-.7v-1.2c-2.2,1.3-4.5,1.9-7,1.9s-6.5-1.1-9.1-3.2c-2.7-2.1-4.3-4.9-4.9-8.5V11Z" fill="#50b6c9"/>
  <path d="M125.2,55.5V.7c0-.5.2-.7.7-.7h5.6c.5,0,.7.2.7.7v22.8L145.4.7c.3-.5.7-.7,1.1-.7h6.3c.5,0,.6.2.3.7l-15.8,27.4,15.8,27.4c.3.5.2.7-.3.7h-6.3c-.5,0-.8-.2-1.1-.7l-13.2-22.8v22.8c0,.5-.2.7-.7.7h-5.6c-.5,0-.7-.2-.7-.7" fill="#50b6c9"/>
  <path d="M0,120.5v-54.8c0-.5.2-.7.7-.7h5.6c.5,0,.7.2.7.7v22.8l13.2-22.8c.3-.5.7-.7,1.1-.7h6.3c.5,0,.6.2.3.7l-15.8,27.4,15.8,27.4c.3.5.2.7-.3.7h-6.3c-.5,0-.8-.2-1.1-.7l-13.2-22.8v22.8c0,.5-.2.7-.7.7H.7c-.5,0-.7-.2-.7-.7" fill="#50b6c9"/>
  <path d="M62.7,120.5v-54.8c0-.5.2-.7.7-.7h5.6c.5,0,.7.2.7.7v22.8l13.2-22.8c.3-.5.7-.7,1.1-.7h6.3c.5,0,.6.2.3.7l-15.8,27.4,15.8,27.4c.3.5.2.7-.3.7h-6.3c-.5,0-.8-.2-1.1-.7l-13.2-22.8v22.8c0,.5-.2.7-.7.7h-5.6c-.5,0-.7-.2-.7-.7" fill="#50b6c9"/>
  <path d="M92.3,83.3c0-.5.2-.7.7-.7h5.6c.5,0,.7.2.7.7v24.4c.2,2,1,3.5,2.4,4.7,1.4,1.2,2.9,1.8,4.7,1.8s3.4-.6,4.7-1.8c1.3-1.2,2.1-2.7,2.3-4.5v-34.4c0-.5.2-.7.7-.7h5.6c.5,0,.7.2.7.7v47.1c0,.5-.2.7-.7.7h-5.6c-.5,0-.7-.2-.7-.7v-1.2c-2.2,1.3-4.5,1.9-7,1.9s-6.5-1.1-9.1-3.2c-2.7-2.1-4.3-4.9-4.9-8.5v-26.3Z" fill="#50b6c9"/>
  <path d="M125.2,120.5v-54.8c0-.5.2-.7.7-.7h5.6c.5,0,.7.2.7.7v22.8l13.2-22.8c.3-.5.7-.7,1.1-.7h6.3c.5,0,.6.2.3.7l-15.8,27.4,15.8,27.4c.3.5.2.7-.3.7h-6.3c-.5,0-.8-.2-1.1-.7l-13.2-22.8v22.8c0,.5-.2.7-.7.7h-5.6c-.5,0-.7-.2-.7-.7" fill="#50b6c9"/>
</svg>