<svg xmlns="http://www.w3.org/2000/svg" baseProfile="tiny" version="1.2" viewBox="0 0 153.3 121.3"><path fill="#50b6c9" d="M0 55.5V.7C0 .2.2 0 .7 0h5.6c.5 0 .7.2.7.7v22.8L20.2.7c.3-.5.7-.7 1.1-.7h6.3c.5 0 .6.2.3.7L12.1 28.1l15.8 27.4c.3.5.2.7-.3.7h-6.3c-.5 0-.8-.2-1.1-.7L7 32.7v22.8c0 .5-.2.7-.7.7H.7c-.5 0-.7-.2-.7-.7m58.6 58.7c.5.2.7.5.7.7v5.6c0 .5-.2.7-.7.7H31.9c-.5 0-.7-.2-.7-.7v-5.6c0-.5.2-.7.7-.7h9.9V31.5c0-1.8-.6-3.3-1.9-4.7-1.2-1.3-2.7-2.1-4.5-2.3h-3.5c-.5 0-.7-.3-.7-.8v-5.6c0-.5.2-.7.7-.7h3.5c3.7.1 6.9 1.6 9.5 4.3s3.9 6 3.9 9.7v82.7h9.8-9.8 9.8ZM32.8 9.1c1 1 2.3 1.5 3.7 1.5s2.7-.5 3.7-1.5 1.5-2.3 1.5-3.7-.5-2.8-1.5-3.8S37.9.1 36.5.1s-2.7.5-3.7 1.5-1.5 2.3-1.5 3.8.5 2.7 1.5 3.7m29.9 46.4V.7c0-.5.2-.7.7-.7H69c.5 0 .7.2.7.7v22.8L82.9.7c.3-.5.7-.7 1.1-.7h6.3c.5 0 .6.2.3.7L74.8 28.1l15.8 27.4c.3.5.2.7-.3.7H84c-.5 0-.8-.2-1.1-.7L69.7 32.7v22.8c0 .5-.2.7-.7.7h-5.6c-.5 0-.7-.2-.7-.7M92.3 11c0-.5.2-.7.7-.7h5.6c.5 0 .7.2.7.7v31.7c.2 2 1 3.5 2.4 4.7s2.9 1.8 4.7 1.8 3.4-.6 4.7-1.8 2.1-2.7 2.3-4.5V18.3c0-.5.2-.7.7-.7h5.6c.5 0 .7.2.7.7v37.3c0 .5-.2.7-.7.7h-5.6c-.5 0-.7-.2-.7-.7v-1.2c-2.2 1.3-4.5 1.9-7 1.9s-6.5-1.1-9.1-3.2c-2.7-2.1-4.3-4.9-4.9-8.5V11Zm32.9 44.5V.7c0-.5.2-.7.7-.7h5.6c.5 0 .7.2.7.7v22.8L145.4.7c.3-.5.7-.7 1.1-.7h6.3c.5 0 .6.2.3.7l-15.8 27.4 15.8 27.4c.3.5.2.7-.3.7h-6.3c-.5 0-.8-.2-1.1-.7l-13.2-22.8v22.8c0 .5-.2.7-.7.7h-5.6c-.5 0-.7-.2-.7-.7M0 120.5V65.7c0-.5.2-.7.7-.7h5.6c.5 0 .7.2.7.7v22.8l13.2-22.8c.3-.5.7-.7 1.1-.7h6.3c.5 0 .6.2.3.7L12.1 93.1l15.8 27.4c.3.5.2.7-.3.7h-6.3c-.5 0-.8-.2-1.1-.7L7 97.7v22.8c0 .5-.2.7-.7.7H.7c-.5 0-.7-.2-.7-.7m62.7 0V65.7c0-.5.2-.7.7-.7H69c.5 0 .7.2.7.7v22.8l13.2-22.8c.3-.5.7-.7 1.1-.7h6.3c.5 0 .6.2.3.7L74.8 93.1l15.8 27.4c.3.5.2.7-.3.7H84c-.5 0-.8-.2-1.1-.7L69.7 97.7v22.8c0 .5-.2.7-.7.7h-5.6c-.5 0-.7-.2-.7-.7m29.6-37.2c0-.5.2-.7.7-.7h5.6c.5 0 .7.2.7.7v24.4c.2 2 1 3.5 2.4 4.7s2.9 1.8 4.7 1.8 3.4-.6 4.7-1.8 2.1-2.7 2.3-4.5V73.5c0-.5.2-.7.7-.7h5.6c.5 0 .7.2.7.7v47.1c0 .5-.2.7-.7.7h-5.6c-.5 0-.7-.2-.7-.7v-1.2c-2.2 1.3-4.5 1.9-7 1.9s-6.5-1.1-9.1-3.2c-2.7-2.1-4.3-4.9-4.9-8.5V83.3Zm32.9 37.2V65.7c0-.5.2-.7.7-.7h5.6c.5 0 .7.2.7.7v22.8l13.2-22.8c.3-.5.7-.7 1.1-.7h6.3c.5 0 .6.2.3.7l-15.8 27.4 15.8 27.4c.3.5.2.7-.3.7h-6.3c-.5 0-.8-.2-1.1-.7l-13.2-22.8v22.8c0 .5-.2.7-.7.7h-5.6c-.5 0-.7-.2-.7-.7"/></svg>